<?xml version="1.0" encoding="UTF-8"?>
<!-- Generated from design-system/brand/monogram-geometry.ts - do not edit by hand. -->
<svg xmlns="http://www.w3.org/2000/svg" viewBox="0 0 100 100" fill="none">
  <defs>
    <mask id="playup-favicon-reserve">
      <rect width="100" height="100" fill="#fff"/>
      <path d="M 75.48 25.39 L 71.92 46.09 L 54.52 26.77 Z" transform="translate(15 13) scale(0.72)" fill="#000" stroke="#000" stroke-width="1.5" stroke-linejoin="round"/>
      <path d="M 40 54 Q 53.95 47.82 63.22 36.43" transform="translate(15 13) scale(0.72)" fill="none" stroke="#000" stroke-width="9.6" stroke-linecap="round"/>
      <path d="M 40 54 Q 33.5 61.5 29.5 71" transform="translate(15 13) scale(0.72)" fill="none" stroke="#000" stroke-width="9.6" stroke-linecap="round"/>
      <path d="M 40 54 Q 40.5 62 48.5 62.5 Q 57.8 63 58.8 48.5" transform="translate(15 13) scale(0.72)" fill="none" stroke="#000" stroke-width="9.6" stroke-linecap="round"/>
    </mask>
  </defs>
  <path d="M 22 0 H 78 Q 100 0 100 22 V 78 Q 100 100 78 100 H 22 Q 0 100 0 78 V 22 Q 0 0 22 0 Z" fill="#1c67c4"/>
  <path d="M 16.19 88.23 L 27.83 33.46 A 32 32 0 1 1 38.58 64.64 L 32.81 91.77 A 8.5 8.5 0 0 1 16.19 88.23 Z" transform="translate(15 13) scale(0.72)" fill="#fff" mask="url(#playup-favicon-reserve)"/>
</svg>